#!OML:ASF E:\basketball\basketball\Project 1\Capture day 1\Session 1\Subject.ASF
:FULLY-SPECIFIED
:DEGREES
67
root -26.2738 13.9881 -8.48543 16.3432 23.195 10.4484
lowerback 17.9817 -2.62069 -19.6853
upperback 8.1949 -6.36222 -2.68061
thorax 1.02901 -3.66798 9.00526
lowerneck -14.3703 -0.830988 -12.9275
upperneck -10.925 1.80117 19.687
head -0.97696 1.4197 8.45929
rclavicle -1.01778e-013 -1.59028e-014
rhumerus -18.3691 0.88479 -77.1212
rradius 50.5752
rwrist -34.4488
rhand -16.8343 22.6729
rfingers 7.12502
rthumb 9.39518 -7.09768
lclavicle -1.01778e-013 -1.59028e-014
lhumerus 12.4958 2.91087 77.4427
lradius 16.6004
lwrist -19.9746
lhand -5.81601 36.0699
lfingers 7.12502
lthumb 20.0092 65.0596
rfemur -55.3734 -17.5671 22.1438
rtibia 90.3525
rfoot -16.9752 7.82879
rtoes -7.02339
lfemur 11.4776 5.52019 -17.0047
ltibia 45.1807
lfoot 0.810165 1.17641
ltoes -21.3741
68
root -26.1669 13.9771 -8.23647 16.0991 22.1363 10.379
lowerback 18.2475 -2.56806 -19.1209
upperback 8.38636 -6.23889 -2.27594
thorax 1.03992 -3.62198 9.15344
lowerneck -14.1588 -0.249005 -12.9964
upperneck -11.8553 2.65814 18.6152
head -1.44346 1.82779 8.13879
rclavicle -5.32743e-014 7.95139e-015
rhumerus -16.1706 1.79647 -77.6423
rradius 49.7855
rwrist -35.1736
rhand -16.8395 22.5417
rfingers 7.12502
rthumb 9.39023 -7.22909
lclavicle -5.32743e-014 7.95139e-015
lhumerus 14.6401 20.105 82.7172
lradius 12.7705
lwrist -26.0104
lhand -9.06197 35.073
lfingers 7.12502
lthumb 16.8868 64.3588
rfemur -51.9207 -15.9906 21.4146
rtibia 88.6397
rfoot -20.4108 6.67409
rtoes -8.90673
lfemur 8.81292 7.82751 -16.9731
ltibia 51.6739
lfoot -0.0755047 -1.241
ltoes -23.2177
69
root -26.0591 13.9882 -7.97105 16.0212 21.2888 10.0072
lowerback 18.4185 -2.65493 -18.0141
upperback 8.49039 -6.20069 -1.95019
thorax 0.932992 -3.58026 8.92752
lowerneck -14.0524 0.250921 -13.0002
upperneck -12.5325 3.36481 17.7167
head -1.78486 2.1729 7.85604
rclavicle 5.80451e-014 -3.18055e-014
rhumerus -14.2045 1.98435 -78.4961
rradius 48.9691
rwrist -34.3494
rhand -16.8813 22.4617
rfingers 7.12502
rthumb 9.3499 -7.31094
lclavicle 5.80451e-014 -3.18055e-014
lhumerus 15.743 31.241 85.9976
lradius 12.0004
lwrist -30.0614
lhand -15.1999 33.4388
lfingers 7.12502
lthumb 10.9719 63.1321
rfemur -48.7811 -14.3377 20.9159
rtibia 86.9949
rfoot -23.3699 6.89788
rtoes -6.59856
lfemur 5.84226 11.3263 -15.6236
ltibia 58.1103
lfoot -0.992658 -1.64716
ltoes -31.2638
70
root -25.9612 13.9643 -7.72258 16.1789 20.4062 9.5161
lowerback 18.4656 -2.69901 -16.8315
upperback 8.52771 -6.07768 -1.68808
thorax 0.774545 -3.483 8.56882
lowerneck -14.0134 0.676694 -12.9633
upperneck -13.2052 3.97887 17.0464
head -2.09157 2.47609 7.6401
rclavicle 2.38542e-014 -1.82882e-014
rhumerus -12.3664 1.67407 -79.616
rradius 48.1195
rwrist -32.5767
rhand -17.2227 22.5181
rfingers 7.12502
rthumb 9.02042 -7.26903
lclavicle 2.38542e-014 -1.82882e-014
lhumerus 16.5824 40.1469 88.3873
lradius 12.8873
lwrist -36.6524
lhand -21.0194 33.0357
lfingers 7.12502
lthumb 5.35565 62.948
rfemur -46.044 -12.4534 20.9805
rtibia 84.7935
rfoot -26.4025 4.33859
rtoes -15.8574
lfemur 2.52605 14.9236 -14.095
ltibia 64.4208
lfoot -1.62033 -1.55255
ltoes -39.364
71
root -25.8637 14.0035 -7.43464 16.2893 19.3416 8.84508
lowerback 18.5078 -2.5297 -15.451
upperback 8.59408 -5.64516 -1.5484
thorax 0.536618 -3.21746 7.92318
lowerneck -13.746 0.919832 -12.9291
upperneck -14.2113 4.36964 16.5904
head -2.49266 2.65587 7.49215
rclavicle 4.85035e-014 -1.66979e-014
rhumerus -10.7232 0.377144 -80.9353
rradius 47.3419
rwrist -30.114
rhand -17.2675 22.5232
rfingers 7.12502
rthumb 8.97724 -7.26575
lclavicle 4.85035e-014 -1.66979e-014
lhumerus 15.3491 41.8918 87.6834
lradius 14.4413
lwrist -37.4499
lhand -20.541 31.7713
lfingers 7.12502
lthumb 5.81748 61.6715
rfemur -43.4913 -10.4259 21.2641
rtibia 82.543
rfoot -28.6563 2.59952
rtoes -19.4329
lfemur -0.725712 17.2099 -13.5108
ltibia 70.0229
lfoot -3.35964 1.07287
ltoes -30.7284
72
root -25.7584 14.0564 -7.13631 16.1851 18.3909 8.08348
lowerback 18.7637 -2.30338 -13.7928
upperback 8.78228 -5.11325 -1.46254
thorax 0.282527 -2.89674 7.0523
lowerneck -13.7255 0.957482 -12.6375
upperneck -15.0131 4.40423 15.78
head -2.73663 2.66532 7.17785
rclavicle 5.64548e-014 1.66979e-014
rhumerus -9.2421 -1.58238 -82.2582
rradius 46.7331
rwrist -26.6737
rhand -17.3444 22.5634
rfingers 7.12502
rthumb 8.90304 -7.22874
lclavicle 5.64548e-014 1.66979e-014
lhumerus 12.8811 39.1903 85.1528
lradius 16.1474
lwrist -34.3798
lhand -21.0881 31.7053
lfingers 7.12502
lthumb 5.2893 61.6193
rfemur -41.1342 -8.9288 21.6415
rtibia 80.554
rfoot -30.042 3.81492
rtoes -10.263
lfemur -3.89511 19.1951 -12.9696
ltibia 75.1525
lfoot -4.43504 3.62999
ltoes -26.5014
73
root -25.6683 14.095 -6.84927 16.2284 17.5164 7.34432
lowerback 19.0913 -2.0252 -12.5098
upperback 8.91797 -4.57988 -1.21764
thorax 0.0240088 -2.59054 6.55222
lowerneck -14.0762 0.917519 -12.392
upperneck -15.437 4.3079 14.8006
head -2.79509 2.63453 6.81792
rclavicle 6.59965e-014 -1.43125e-014
rhumerus -7.97002 -3.17638 -83.3374
rradius 46.4147
rwrist -22.9474
rhand -17.4302 22.5804
rfingers 7.12502
rthumb 8.82024 -7.21529
lclavicle 6.59965e-014 -1.43125e-014
lhumerus 10.0489 34.0174 82.1322
lradius 18.8265
lwrist -26.8924
lhand -21.4286 32.8855
lfingers 7.12502
lthumb 4.96047 62.8075
rfemur -39.0552 -7.90505 22.3443
rtibia 78.7574
rfoot -31.2921 3.61242
rtoes -2.41409
lfemur -7.47787 20.9853 -12.4637
ltibia 79.8738
lfoot -5.40487 6.07214
ltoes -29.385
74
root -25.5846 14.1177 -6.57227 16.2394 16.6652 6.64793
lowerback 19.5848 -1.64157 -11.3717
upperback 9.05981 -3.94763 -1.02885
thorax -0.298876 -2.23491 6.05139
lowerneck -14.3807 0.790178 -12.1913
upperneck -15.9646 4.13478 14.1661
head -2.88202 2.56082 6.5827
rclavicle -1.82882e-014 4.29375e-014
rhumerus -6.99296 -4.83001 -84.3793
rradius 46.3732
rwrist -19.1535
rhand -17.5113 22.5455
rfingers 7.12502
rthumb 8.74195 -7.25349
lclavicle -1.82882e-014 4.29375e-014
lhumerus 8.06687 29.9446 79.8391
lradius 21.3454
lwrist -20.322
lhand -22.0919 32.2473
lfingers 7.12502
lthumb 4.32001 62.1833
rfemur -37.2129 -7.26585 23.1092
rtibia 77.2123
rfoot -32.5208 2.48302
rtoes 0.445341
lfemur -11.3111 22.4893 -12.1164
ltibia 84.2676
lfoot -6.26741 7.17664
ltoes -35.0325
75
root -25.5108 14.145 -6.3007 16.243 15.9301 6.05688
lowerback 20.2337 -1.19904 -10.2013
upperback 9.26128 -3.24087 -1.06757
thorax -0.641633 -1.8364 5.26214
lowerneck -14.5944 0.540301 -11.7129
upperneck -16.6494 3.78609 13.7563
head -3.00149 2.37664 6.37324
rclavicle 1.74931e-014 -4.29375e-014
rhumerus -6.19507 -6.46863 -85.6143
rradius 46.5535
rwrist -16.0767
rhand -17.572 22.5309
rfingers 7.12502
rthumb 8.68336 -7.2705
lclavicle 1.74931e-014 -4.29375e-014
lhumerus 6.98657 27.1788 78.1796
lradius 23.6779
lwrist -15.697
lhand -20.5789 29.5776
lfingers 7.12502
lthumb 5.78095 59.4788
rfemur -35.4722 -6.91609 23.7732
rtibia 75.7378
rfoot -33.28 -0.557521
rtoes -8.0757
lfemur -15.4101 23.5569 -12.0139
ltibia 88.1844
lfoot -7.35847 8.08913
ltoes -20.2263
76
root -25.441 14.1565 -6.03234 16.2075 15.1572 5.68358
lowerback 20.903 -0.628107 -9.37735
upperback 9.54022 -2.41779 -1.17472
thorax -0.869671 -1.39855 4.54942
lowerneck -14.6839 0.152181 -11.5477
upperneck -17.4766 3.32464 13.6912
head -3.17428 2.14291 6.33227
rclavicle 5.60573e-014 3.97569e-015
rhumerus -5.50325 -6.74662 -86.4864
rradius 46.8445
rwrist -15.228
rhand -17.5902 22.5667
rfingers 7.12502
rthumb 8.66582 -7.23542
lclavicle 5.60573e-014 3.97569e-015
lhumerus 6.49038 25.111 77.0227
lradius 25.86
lwrist -12.3401
lhand -21.3633 27.6991
lfingers 7.12502
lthumb 5.02359 57.6196
rfemur -33.4481 -6.73728 24.1022
rtibia 74.0334
rfoot -33.4087 -2.50221
rtoes -13.3785
lfemur -19.5276 24.3049 -12.2538
ltibia 91.4987
lfoot -8.13474 8.02148
ltoes -15.2488
77
root -25.3706 14.1454 -5.76337 16.0744 14.335 5.45701
lowerback 21.5765 0.0633663 -8.89167
upperback 9.87377 -1.49335 -1.26973
thorax -1.00135 -0.927584 3.99835
lowerneck -14.5896 -0.321822 -11.7697
upperneck -18.3904 2.81189 13.877
head -3.39858 1.89559 6.44268
rclavicle 1.74931e-014 1.35174e-014
rhumerus -4.95614 -6.01581 -86.9612
rradius 47.1982
rwrist -16.1641
rhand -17.5857 22.5997
rfingers 7.12502
rthumb 8.67012 -7.20222
lclavicle 1.74931e-014 1.35174e-014
lhumerus 6.10519 22.715 75.9359
lradius 27.9974
lwrist -8.04362
lhand -19.7843 27.4829
lfingers 7.12502
lthumb 6.54805 57.3617
rfemur -31.0911 -6.59743 24.1367
rtibia 72.309
rfoot -33.0603 -4.23731
rtoes -19.2965
lfemur -23.6121 24.7631 -12.6428
ltibia 94.2776
lfoot -8.82061 7.2126
ltoes -16.2198
78
root -25.3003 14.1807 -5.46098 16.0087 13.5686 5.29378
lowerback 22.1789 0.767727 -8.46425
upperback 10.1558 -0.561813 -1.44125
thorax -1.12928 -0.45178 3.37706
lowerneck -14.1 -0.856608 -12.0466
upperneck -19.4918 2.23514 14.3682
head -3.72445 1.5959 6.66891
rclavicle -4.1546e-014 3.57812e-015
rhumerus -4.67956 -5.46471 -87.372
rradius 47.6248
rwrist -16.9702
rhand -17.5845 22.6322
rfingers 7.12502
rthumb 8.67134 -7.16967
lclavicle -4.1546e-014 3.57812e-015
lhumerus 5.9986 20.1635 74.8371
lradius 29.652
lwrist -2.66161
lhand -20.9708 27.0309
lfingers 7.12502
lthumb 5.4025 56.942
rfemur -28.1427 -6.57123 24.0209
rtibia 69.9836
rfoot -32.498 -8.51128
rtoes -31.847
lfemur -27.6121 24.4004 -13.3894
ltibia 95.9488
lfoot -9.3351 6.21489
ltoes -16.882
79
root -25.2316 14.1755 -5.16818 16.0685 12.8101 5.20317
lowerback 22.6164 1.49136 -8.17539
upperback 10.345 0.375434 -1.63774
thorax -1.25005 0.0241584 2.78966
lowerneck -13.2921 -1.46083 -12.4635
upperneck -20.6789 1.58459 15.1312
head -4.10623 1.24465 7.02169
rclavicle -2.10712e-014 2.46493e-014
rhumerus -4.75533 -4.98056 -87.5363
rradius 48.2107
rwrist -17.3818
rhand -17.5819 22.6327
rfingers 7.12502
rthumb 8.67385 -7.16912
lclavicle -2.10712e-014 2.46493e-014
lhumerus 6.06771 18.1642 73.8811
lradius 30.9157
lwrist 1.78642
lhand -17.184 26.55
lfingers 7.12502
lthumb 9.05777 56.3355
rfemur -26.2743 -6.44297 23.6199
rtibia 68.2615
rfoot -33.2366 -5.61633
rtoes -27.9964
lfemur -31.8032 24.9095 -13.8204
ltibia 97.2153
lfoot -9.72625 4.80256
ltoes -19.5308
80
root -25.1606 14.2359 -4.81904 16.1712 12.1302 5.00895
lowerback 22.81 2.11826 -7.93683
upperback 10.4764 1.20097 -1.75566
thorax -1.28462 0.438431 2.33291
lowerneck -12.5438 -2.0341 -13.2971
upperneck -21.4858 0.995512 16.0335
head -4.3627 0.949597 7.5001
rclavicle -1.82882e-014 -2.75317e-014
rhumerus -5.09359 -3.75685 -87.4554
rradius 48.9339
rwrist -18.5523
rhand -17.5717 22.6331
rfingers 7.12502
rthumb 8.68371 -7.16826
lclavicle -1.82882e-014 -2.75317e-014
lhumerus 5.81372 17.3665 73.0769
lradius 32.4814
lwrist 3.86608
lhand -20.5178 26.1809
lfingers 7.12502
lthumb 5.83994 56.0804
rfemur -24.1118 -6.27835 23.2034
rtibia 66.0625
rfoot -33.1701 -1.41511
rtoes -20.3621
lfemur -35.5064 24.2709 -14.4333
ltibia 97.2847
lfoot -10.3311 4.18774
ltoes -22.2342
81
root -25.0845 14.2538 -4.47417 16.4485 11.602 4.75354
lowerback 22.6701 2.58811 -7.52939
upperback 10.4932 1.87971 -2.01155
thorax -1.25038 0.789643 1.67038
lowerneck -11.8577 -2.48738 -13.8367
upperneck -21.8023 0.468179 16.7801
head -4.46147 0.669178 7.86323
rclavicle -1.35174e-014 2.18166e-014
rhumerus -5.60957 -1.96691 -87.5028
rradius 49.5046
rwrist -20.5212
rhand -17.439 22.6205
rfingers 7.12502
rthumb 8.81173 -7.17549
lclavicle -1.35174e-014 2.18166e-014
lhumerus 5.36972 17.306 72.2076
lradius 34.1149
lwrist 4.7264
lhand -18.8625 27.6535
lfingers 7.12502
lthumb 7.43784 57.5027
rfemur -21.5527 -6.37358 22.9397
rtibia 63.6602
rfoot -32.8774 -2.21165
rtoes -24.8707
lfemur -39.6083 23.9038 -14.8213
ltibia 97.1068
lfoot -10.9402 3.30632
ltoes -23.8443
